Coordinates
version=1
nRows=4
nColumns=114
inDegrees=yes

Units are S.I. units (second, meters, Newtons, ...)
If the header above contains a line with 'inDegrees', this indicates whether rotational values are in degrees (yes) or radians (no).

endheader 
time	pelvis_tilt	pelvis_list	pelvis_rotation	pelvis_tx	pelvis_ty	pelvis_tz	hip_flexion_l	hip_adduction_l	hip_rotation_l	hip_flexion_r	hip_adduction_r	hip_rotation_r	knee_angle_l	knee_angle_r	ankle_angle_l	ankle_angle_r	subtalar_angle_l	subtalar_angle_r	mtp_angle_l	mtp_angle_r	lumbar_extension	lumbar_bending	lumbar_rotation	arm_flex_l	arm_add_l	arm_rot_l	arm_flex_r	arm_add_r	arm_rot_r	elbow_flex_l	elbow_flex_r	pro_sup_l	pro_sup_r	addbrev_l/activation	addlong_l/activation	addmagDist_l/activation	addmagIsch_l/activation	addmagMid_l/activation	addmagProx_l/activation	bflh_l/activation	bfsh_l/activation	edl_l/activation	ehl_l/activation	fdl_l/activation	fhl_l/activation	gaslat_l/activation	gasmed_l/activation	glmax1_l/activation	glmax2_l/activation	glmax3_l/activation	glmed1_l/activation	glmed2_l/activation	glmed3_l/activation	glmin1_l/activation	glmin2_l/activation	glmin3_l/activation	grac_l/activation	iliacus_l/activation	perbrev_l/activation	perlong_l/activation	piri_l/activation	psoas_l/activation	recfem_l/activation	sart_l/activation	semimem_l/activation	semiten_l/activation	soleus_l/activation	tfl_l/activation	tibant_l/activation	tibpost_l/activation	vasint_l/activation	vaslat_l/activation	vasmed_l/activation	addbrev_r/activation	addlong_r/activation	addmagDist_r/activation	addmagIsch_r/activation	addmagMid_r/activation	addmagProx_r/activation	bflh_r/activation	bfsh_r/activation	edl_r/activation	ehl_r/activation	fdl_r/activation	fhl_r/activation	gaslat_r/activation	gasmed_r/activation	glmax1_r/activation	glmax2_r/activation	glmax3_r/activation	glmed1_r/activation	glmed2_r/activation	glmed3_r/activation	glmin1_r/activation	glmin2_r/activation	glmin3_r/activation	grac_r/activation	iliacus_r/activation	perbrev_r/activation	perlong_r/activation	piri_r/activation	psoas_r/activation	recfem_r/activation	sart_r/activation	semimem_r/activation	semiten_r/activation	soleus_r/activation	tfl_r/activation	tibant_r/activation	tibpost_r/activation	vasint_r/activation	vaslat_r/activation	vasmed_r/activation	
          3.85000000	         -3.10909759	         -0.56305889	        -39.80390666	         -3.99303224	          0.83878998	         -0.02763237	         52.72891595	        -18.52626080	         16.27957681	          1.38794928	         -9.32602420	         13.40597075	         36.09093426	         53.63092805	         -6.91500424	         15.86010929	        -31.49986993	        -27.14443422	        -35.02751470	        -10.42051611	        -19.93042160	          4.94453551	         -0.28487240	         61.77077680	        -13.58600500	       -121.96416905	         17.70732414	          9.76790197	        -37.29630182	         18.09930699	        129.91347666	        119.34381660	        120.06098863	          0.01013442	          0.01005864	          0.12015446	          0.07182703	          0.15670016	          0.01076450	          0.17287547	          0.01208003	          0.09091035	          0.07715509	          0.01168745	          0.01157713	          0.01140245	          0.01097269	          0.05682491	          0.03354514	          0.04052131	          0.01476883	          0.08419416	          0.10996216	          0.01273105	          0.01215738	          0.01428198	          0.05922375	          0.01006496	          0.01250701	          0.01136814	          0.01469686	          0.01005696	          0.01086814	          0.01021327	          0.63856910	          0.09041946	          0.01122554	          0.01246076	          0.11278589	          0.01164919	          0.01184675	          0.01163977	          0.01175103	          0.01234918	          0.01032464	          0.01527956	          0.01449782	          0.01931861	          0.01320332	          0.24072497	          0.01048276	          0.13647836	          0.10124934	          0.05065465	          0.02470435	          0.01217669	          0.01003716	          0.01238646	          0.01241261	          0.01385839	          0.01064991	          0.01077300	          0.01059077	          0.01099236	          0.01055200	          0.01043736	          0.01072349	          0.01034656	          0.01013558	          0.01005449	          0.06566558	          0.01028669	          0.01023347	          0.01039537	          0.15100698	          0.30811163	          0.01007080	          0.01021930	          0.19811325	          0.12474413	          0.01123957	          0.01075891	          0.01112161	
          3.86000000	         -2.53415910	         -0.68609992	        -42.13444403	         -3.96343918	          0.85102962	         -0.02809879	         50.09158288	        -19.77272437	         12.60884497	          2.43825533	         -9.71788235	         15.87079914	         35.88991615	         53.23954666	         -8.03347230	         17.74344884	        -29.99857584	        -23.59030203	        -30.78119453	         -8.23365140	        -20.14198253	          4.55420475	          0.83972099	         66.96747339	        -16.64154374	       -118.67758879	         14.47912911	          8.47657700	        -43.16967986	         17.76754000	        135.82600200	        119.81211752	        119.74061441	          0.17206082	          0.20676183	          0.10036214	          0.06035598	          0.13102077	          0.02924241	          0.14410093	          0.04253173	          0.12531630	          0.12283330	          0.01019073	          0.01005399	          0.01001714	          0.02960801	          0.04746471	          0.02801071	          0.03385557	          0.01271283	          0.07047253	          0.09181316	          0.01322580	          0.01172268	          0.01329758	          0.08104291	          0.01012005	          0.01629720	          0.01209099	          0.01264081	          0.01012553	          0.01089410	          0.01023334	          0.53216309	          0.07630144	          0.01000567	          0.01320902	          0.15142746	          0.01002901	          0.01047874	          0.01014708	          0.01033994	          0.02561488	          0.14475827	          0.01287686	          0.01218508	          0.01644036	          0.02495436	          0.20073045	          0.22247767	          0.11722221	          0.08459501	          0.04231667	          0.02073420	          0.07599772	          0.01865909	          0.01075501	          0.01048859	          0.01162862	          0.01997366	          0.01275736	          0.01126552	          0.02506941	          0.02027997	          0.01663733	          0.14810746	          0.06396128	          0.01015216	          0.01006502	          0.22601212	          0.05389297	          0.01030412	          0.09205685	          0.13211994	          0.25751091	          0.01007904	          0.03171611	          0.27831054	          0.10397238	          0.01009847	          0.01003375	          0.01007201	
          3.87000000	         -2.22578104	         -0.56657366	        -44.33986050	         -3.93278372	          0.86169793	         -0.02870004	         47.87794248	        -20.52748829	          9.47379522	          3.82446705	        -10.22423913	         17.88819355	         36.24278799	         53.09340147	         -8.48619862	         18.27310994	        -27.45174871	        -20.81579145	        -27.04756671	         -6.43529997	        -19.63655970	          4.22168801	          1.51421051	         70.54059605	        -18.95764116	       -115.85066780	         11.77249161	          6.42162160	        -47.12117580	         17.02819984	        135.10758383	        119.65585511	        119.91522751	          0.14422880	          0.22790946	          0.08369417	          0.05041660	          0.10924294	          0.02453690	          0.12013398	          0.08165169	          0.10443343	          0.10236865	          0.05422116	          0.06681006	          0.11487003	          0.23855210	          0.03961516	          0.02336859	          0.02824205	          0.39210824	          0.18399852	          0.07672561	          0.10197087	          0.03267274	          0.02206815	          0.06777099	          0.01023651	          0.01359788	          0.01008302	          0.01157647	          0.01016431	          0.01035950	          0.01045404	          0.44350573	          0.06377327	          0.13283198	          0.01341367	          0.12619118	          0.06681542	          0.01004130	          0.01001012	          0.01002882	          0.02175454	          0.12102148	          0.01090357	          0.01030317	          0.01398743	          0.02262411	          0.17022707	          0.22968752	          0.12372177	          0.12794617	          0.03537845	          0.01738263	          0.06353270	          0.09529515	          0.01018641	          0.01008304	          0.01010048	          0.01809306	          0.01199701	          0.01059003	          0.03214812	          0.04201016	          0.02913100	          0.24503331	          0.10780830	          0.01238681	          0.01087334	          0.31752610	          0.15904448	          0.01028311	          0.19240725	          0.15434185	          0.27363531	          0.01005701	          0.06159831	          0.23374073	          0.08666198	          0.01006065	          0.01002180	          0.01004523	
          3.88000000	         -1.89618037	         -0.41562828	        -46.60710291	         -3.90172367	          0.87158281	         -0.02954082	         45.77299033	        -20.81413792	          7.31915740	          5.37797201	        -10.83306949	         19.59577169	         37.38194796	         53.40388748	         -8.86701373	         17.86876048	        -24.09302694	        -18.58383215	        -23.70699158	         -5.17127499	        -18.98720426	          3.96462437	          2.14254195	         72.77173905	        -20.36217047	       -113.27887020	          9.79685320	          4.47413350	        -47.28341987	         16.02421585	        131.37562412	        119.53603174	        119.59288906	          0.12037217	          0.19003114	          0.06978011	          0.04208074	          0.09106945	          0.02053775	          0.10015988	          0.06813902	          0.08862612	          0.08544854	          0.04541411	          0.05572263	          0.09574060	          0.19880219	          0.03305337	          0.01949200	          0.02355354	          0.43660399	          0.15364110	          0.06403621	          0.19232484	          0.14157674	          0.05994050	          0.05655719	          0.11161295	          0.01144761	          0.08495008	          0.01094331	          0.04227353	          0.01695361	          0.02251819	          0.36961667	          0.05320988	          0.11070012	          0.01943755	          0.10528970	          0.05571309	          0.01016638	          0.08605141	          0.01016277	          0.01820494	          0.10089305	          0.01031258	          0.01024075	          0.01181429	          0.01901650	          0.23192730	          0.19400540	          0.13119510	          0.10688508	          0.02959769	          0.01465333	          0.05373103	          0.20615450	          0.12168500	          0.12739819	          0.01041554	          0.02418210	          0.04459115	          0.18869390	          0.02968084	          0.06322943	          0.09019786	          0.20449485	          0.09002611	          0.06214062	          0.02811122	          0.37577954	          0.13267517	          0.01023056	          0.16088416	          0.17173568	          0.30857965	          0.01009571	          0.07247181	          0.21849696	          0.07223687	          0.01007258	          0.01002613	          0.01005417	
